<svg width="145" height="102" viewBox="0 0 145 102" fill="none" xmlns="http://www.w3.org/2000/svg">
<mask id="mask0_1663_15894" style="mask-type:alpha" maskUnits="userSpaceOnUse" x="0" y="0" width="145" height="102">
<path d="M0 0H144.5V102H0V0Z" fill="#D9D9D9"/>
</mask>
<g mask="url(#mask0_1663_15894)">
<path d="M102.771 8.85717C102.314 8.35793 101.52 8.47746 100.866 8.64622C98.4471 9.265 96.0282 10.0103 93.8906 11.2971C91.753 12.5909 89.8967 14.4824 89.074 16.845L89.4677 21.4999C92.4632 21.6687 95.4024 20.3046 97.6244 18.2865C99.8393 16.2614 101.407 13.6246 102.687 10.9104C102.996 10.2494 103.271 9.3986 102.779 8.85717H102.771Z" fill="#F1E8DF"/>
<path d="M56.3413 13.6109C54.0982 12.1624 51.3137 10.7842 48.5925 10.7842C47.9526 10.7842 47.2073 10.9389 46.919 11.5084C46.7432 11.8459 46.7783 12.2467 46.8416 12.6265C47.4885 16.6766 51.0887 20.8464 54.9982 22.098C56.3202 22.5199 57.7405 22.6464 59.1187 22.4566L61.5095 19.9463C60.6094 17.3235 58.6757 15.1227 56.3413 13.6179V13.6109Z" fill="#F1E8DF"/>
<path d="M93.1659 15.5185C92.962 15.7646 92.7651 16.0247 92.6737 16.3271C92.5823 16.6295 92.6104 16.9881 92.8214 17.2342C93.0605 17.5154 93.4824 17.5717 93.8339 17.4803C94.1855 17.3889 94.4949 17.1639 94.7902 16.9459C95.5496 16.3904 96.3161 15.8279 97.0755 15.2724C97.8068 14.738 98.5732 14.1614 98.9318 13.3316C99.0443 13.0785 99.0936 12.741 98.8826 12.5652C98.7842 12.4808 98.6435 12.4527 98.517 12.4386C97.6661 12.3402 96.7731 12.5652 96.077 13.0715C95.0715 13.8028 93.9746 14.5692 93.1659 15.5185V15.5185Z" fill="#F6A1A0"/>
<path d="M54.9421 18.008C55.2164 18.0783 55.5117 18.1416 55.7859 18.0572C56.0602 17.9799 56.2992 17.7057 56.25 17.4244C56.2219 17.2627 56.1094 17.1291 55.9898 17.0025C54.9703 15.9126 53.7397 15.0407 52.4319 14.3235C51.7709 13.9649 51.0537 13.6344 50.3013 13.6836C50.224 13.6836 50.1396 13.7047 50.0763 13.7539C50.02 13.8031 49.9989 13.8805 49.9849 13.9578C49.5489 16.1939 53.3811 17.6002 54.9351 18.001L54.9421 18.008Z" fill="#F6A1A0"/>
<path d="M101.667 102.602C101.302 102.356 100.823 102.272 100.416 102.441C101.309 102.258 101.941 101.245 101.709 100.366C101.477 99.4802 100.437 98.9036 99.5648 99.1849C100.479 98.9036 101.077 97.8419 100.845 96.9067C100.612 95.9785 99.5859 95.3246 98.6436 95.5074C99.1359 95.2261 99.621 94.8956 99.9234 94.4104C100.219 93.9253 100.289 93.2643 99.9445 92.8073C99.5999 92.3502 98.8054 92.2869 98.489 92.758C98.8616 92.1533 98.8054 91.3236 98.3624 90.7681C97.9194 90.2126 97.1108 89.9946 96.4428 90.2337C97.3006 89.9665 97.8913 89.0313 97.7717 88.1453C97.6381 87.1257 96.3021 85.9304 95.3951 86.8375C96.2178 86.7179 96.8858 85.853 96.5693 85.0092C96.267 84.2006 95.1068 83.8772 94.4317 84.4186C95.1911 84.3623 95.8099 83.5889 95.7115 82.8365C95.613 82.0841 94.8044 81.5075 94.0591 81.6482C94.8325 81.4935 95.374 80.6004 95.1419 79.841C94.9099 79.0887 93.9606 78.6457 93.2364 78.948C93.9817 78.7371 94.4247 77.8159 94.1364 77.1058C93.8481 76.3956 92.8848 76.044 92.2027 76.4167C92.8778 76.2268 93.3348 75.4604 93.1801 74.7783C93.0325 74.0892 92.2941 73.59 91.598 73.7025C92.4137 73.6181 93.1098 72.8587 93.1168 72.036C93.1168 71.2133 92.4418 70.4398 91.6261 70.3484C92.3504 70.3203 92.9551 69.5609 92.8145 68.8437C92.6738 68.1335 91.823 67.6553 91.141 67.9085C92.5402 67.1983 92.3996 64.7443 90.937 64.1888C91.6261 64.3224 92.3785 63.8231 92.5121 63.134C92.6457 62.4449 92.1394 61.6926 91.4504 61.559C92.048 61.3269 92.4066 60.6097 92.2449 59.9909C92.0762 59.3721 91.4082 58.9292 90.7753 59.0276C92.3152 58.669 92.7793 55.2235 91.4925 55.5329C92.266 55.3501 92.9481 54.7454 92.8567 53.8735C92.7723 53.0297 92.3785 52.3898 91.598 52.0663C92.1394 52.3195 92.8356 52.0804 93.1872 51.6023C93.5387 51.1171 93.5739 50.4491 93.37 49.8866C93.1661 49.324 92.7442 48.8599 92.259 48.5084C92.8074 48.642 93.5247 48.6982 93.7919 48.206C93.9325 47.9529 93.8833 47.6364 93.82 47.3552C93.6723 46.6942 93.3278 45.9207 92.6527 45.8715C93.145 45.8364 93.5528 45.4145 93.7075 44.9434C93.8622 44.4722 93.7989 43.9589 93.6794 43.4738C93.5879 43.1011 93.4473 42.7214 93.1801 42.4542C93.0114 42.2854 92.7863 42.1448 92.5543 42.1026C92.6035 42.1026 92.6387 42.0956 92.6387 42.1026C93.5036 42.3065 94.3544 41.3362 94.1856 40.4642C94.0169 39.5923 93.0746 39.0017 92.1887 39.0509C93.0325 38.8892 93.7215 38.1157 93.7848 37.2649C93.8481 36.407 93.2786 35.5421 92.4699 35.2609C93.3207 35.1273 94.0169 34.3398 94.052 33.4819C94.0872 32.624 93.4543 31.7803 92.6176 31.5763C93.5247 31.4357 94.1716 30.4654 94.1083 29.5513C94.045 28.6301 93.3911 27.8215 92.5684 27.3996C93.4684 27.1465 94.0731 26.1128 93.8411 25.1987C93.609 24.2916 92.5824 23.6658 91.6683 23.8768C92.4488 23.5111 92.8567 22.4986 92.5402 21.697C92.2309 20.8954 91.2464 20.4172 90.4237 20.6774C91.0917 20.2274 91.6191 19.4188 91.4082 18.6383C91.2394 17.9984 90.3253 17.5835 89.7487 17.8226C90.3956 17.1476 90.4589 15.9381 89.805 15.249C89.1159 14.5248 87.8221 14.5599 87.133 15.249C87.6814 14.4896 87.4986 13.2591 86.697 12.7388C86.0079 12.2958 85.0305 12.4927 84.475 13.0763C84.7422 12.2747 84.3344 11.227 83.5187 10.8824C82.4921 10.4535 81.1983 11.1145 80.8046 12.1551C81.1139 11.3114 80.5444 10.2566 79.6654 10.0527C78.7865 9.84879 77.8161 10.5519 77.7247 11.445C77.4153 10.5449 76.5434 9.84176 75.5942 9.8277C74.6449 9.81363 73.7097 10.559 73.6113 11.5082C73.6745 10.3058 72.1417 9.50425 71.0096 9.91208C69.8775 10.3199 69.3853 11.2903 69.1743 12.4716C69.1392 12.6614 69.104 12.8513 69.0689 13.0411C68.8157 12.4434 68.4712 11.8528 67.9157 11.5223C67.3602 11.1918 66.5516 11.2199 66.1508 11.7262C65.7218 12.2677 65.9187 13.0552 66.1367 13.7091C65.7007 12.8442 64.4632 12.4997 63.6405 13.02C62.9655 13.449 62.6983 14.3701 62.9514 15.1154C62.3959 14.4826 61.1584 14.4685 60.5677 15.1647C59.8575 15.9944 60.0403 17.3234 60.6943 18.1953C59.6888 17.689 58.3035 18.2585 57.9449 19.3273C57.5863 20.3891 58.3457 21.6829 59.4497 21.8939C58.5145 21.6548 57.4176 22.2876 57.2488 23.2369C57.1082 24.0244 57.7199 24.8471 58.4723 25.0089C57.4387 25.0792 56.4402 25.7823 56.2433 26.7949C56.0675 27.6879 56.7003 28.6371 57.523 28.9114C57.2699 29.0872 57.0308 29.3825 56.8832 29.6778C56.5597 30.3036 56.4261 31.056 56.6441 31.724C56.8691 32.392 57.4879 32.9475 58.191 32.9686C57.2629 33.3131 56.4613 34.1358 56.3769 35.1203C56.3066 35.95 56.8832 36.8078 57.6566 37.0258C56.8691 37.0539 56.1027 37.6727 55.9901 38.4673C55.8566 39.4165 56.6863 40.3799 57.6426 40.3939C56.4613 40.3096 55.3854 41.5682 55.6597 42.7214C55.9128 43.7832 57.2136 44.409 58.2192 44.0363C57.8465 44.2332 57.523 44.5144 57.2629 44.8379C56.7285 45.5059 56.4613 46.4551 56.841 47.2216C57.0589 47.6716 57.5582 47.974 58.0434 48.0162C57.4879 48.3959 57.0519 49.0639 57.073 49.6545C57.1011 50.5616 57.8254 51.3562 58.7043 51.5882C57.8535 51.3421 56.8621 52.0312 56.7988 52.9101C56.7355 53.7961 57.6144 54.6188 58.4934 54.4993C57.6777 54.886 57.0519 55.7368 57.1011 56.6369C57.1504 57.5369 58.0293 58.3596 58.9153 58.1979C57.8676 58.3877 57.3965 60.5745 57.9379 61.3058C58.3317 61.8402 59.2809 61.9457 59.8294 62.227C58.5075 62.9653 57.7621 65.2787 59.527 66.1014C58.8801 66.1506 58.3387 66.7975 58.409 67.4514C58.4793 68.0983 59.1403 68.6187 59.7872 68.5343C58.9926 68.5624 58.2895 69.2726 58.2754 70.0672C58.2613 70.8617 58.9364 71.6 59.7239 71.6633C58.6903 71.6282 57.7059 72.5141 57.6355 73.5478C57.5652 74.5814 58.402 75.601 59.4286 75.7135C58.6481 75.5799 57.8043 76.0792 57.5441 76.8315C57.291 77.5839 57.6496 78.491 58.3528 78.8636C57.4949 78.6246 56.4964 79.1449 56.187 79.9817C55.8776 80.8184 56.3136 81.8591 57.1222 82.2318C56.1941 82.0982 55.2096 82.738 54.9706 83.6451C54.7315 84.5522 55.2589 85.5999 56.1308 85.9444C55.2589 85.7405 54.2744 86.2468 53.9299 87.0765C53.5854 87.9063 53.9158 88.961 54.6752 89.4391C53.944 88.8625 52.7486 89.0243 52.1931 89.7696C51.6376 90.515 51.8275 91.7033 52.5869 92.2377C50.0063 91.8439 50.1891 96.4496 51.9118 97.3567C51.047 96.991 49.9289 97.5676 49.718 98.4747C49.5 99.3818 50.2524 100.394 51.1806 100.458C50.2313 100.57 49.3945 101.351 49.2117 102.293C49.0289 103.235 49.5141 104.269 50.3579 104.726C47.9812 102.933 48.3187 108.699 49.8094 107.496C49.2398 107.953 48.6351 108.481 48.5156 109.205C48.3961 109.929 49.1273 110.766 49.7883 110.457C49.0219 110.492 48.3539 111.216 48.389 111.982C48.4242 112.749 49.1414 113.417 49.9078 113.396C49.1344 113.536 48.5578 114.359 48.6914 115.132C48.8179 115.906 49.6336 116.497 50.4071 116.384C49.4859 116.131 48.5859 117.193 48.7758 118.128C48.9656 119.063 49.9219 119.689 50.8712 119.766C49.9993 119.583 49.0922 120.462 49.2398 121.334C49.3875 122.213 50.5266 122.741 51.2931 122.291C49.3805 122.452 50.1469 125.982 52.172 125.37C51.3423 125.701 50.8923 126.763 51.2298 127.592C51.5673 128.422 52.6291 128.865 53.4588 128.521C52.847 128.696 52.4322 129.371 52.5447 129.997C52.6572 130.623 53.2971 131.101 53.9299 131.052C53.3533 131.129 52.9174 131.762 53.058 132.332C53.283 133.26 54.8581 133.513 55.4768 132.873C55.2589 133.64 55.0409 134.476 55.3292 135.222C55.6175 135.967 56.6581 136.445 57.2488 135.897C56.623 136.164 56.3558 137.043 56.7214 137.612C57.0871 138.189 57.9941 138.316 58.5004 137.866C57.7551 138.358 57.5863 139.539 58.177 140.214C58.7747 140.903 59.8434 140.847 60.5044 140.298C60.2653 141.114 60.4622 142.148 61.2638 142.584C61.8685 142.907 62.6701 142.788 63.1553 142.31C63.0709 143.09 63.5983 143.892 64.3507 144.124C65.096 144.356 65.989 143.99 66.3547 143.301C66.1648 143.969 66.5727 144.749 67.2266 144.982C67.8805 145.214 68.6892 144.862 68.9634 144.222C68.7314 144.996 69.2025 145.91 69.9689 146.156C70.7353 146.402 71.6565 145.945 71.9237 145.185C72.5565 146.711 75.0809 146.88 75.9036 145.453C76.0161 146.121 76.663 146.655 77.338 146.627C78.013 146.599 78.6177 146.015 78.674 145.34C79.0467 146.1 79.9045 146.599 80.7553 146.55C81.6062 146.5 82.3937 145.903 82.675 145.101C82.9914 145.825 83.9266 146.205 84.6649 145.91C85.3962 145.614 85.804 144.693 85.5298 143.948C85.9306 144.707 86.9361 145.087 87.7377 144.778C88.5393 144.468 89.0315 143.505 88.8065 142.675C90.4378 144.82 93.0325 142.155 91.816 140.123C92.2519 140.306 92.7231 140.46 93.1942 140.425C93.6653 140.39 94.1505 140.137 94.3333 139.694C94.5161 139.258 94.2981 138.653 93.8341 138.541C94.5794 138.787 95.4583 138.864 96.0912 138.393C96.7381 137.915 96.7381 136.951 96.1474 136.452C97.0967 136.276 98.5452 135.826 98.721 134.708C98.8405 133.963 98.3202 133.176 97.5889 132.993C98.2921 133.45 99.3609 133.168 99.7476 132.423C100.134 131.678 99.7476 130.644 98.9671 130.335C99.9023 130.518 100.922 129.969 101.295 129.09C101.66 128.211 101.33 127.1 100.549 126.559C101.372 126.833 102.363 126.256 102.539 125.406C102.715 124.555 102.026 123.634 101.168 123.563C101.97 123.711 102.841 123.177 103.074 122.396C103.306 121.616 102.87 120.687 102.117 120.371C103.031 120.758 104.079 119.738 103.981 118.754C103.882 117.769 102.975 117.024 102.026 116.757C102.785 116.757 103.474 116.068 103.481 115.301C103.488 114.542 102.82 113.839 102.061 113.818C102.849 113.902 103.636 113.227 103.678 112.432C103.72 111.638 103.01 110.885 102.216 110.885C104.304 111.272 104.22 107.813 101.92 108.136C102.856 108.01 103.538 106.948 103.277 106.048C103.017 105.141 101.871 104.62 101.013 105.007C101.78 104.972 102.399 104.149 102.23 103.404C102.159 103.087 101.956 102.827 101.688 102.644L101.667 102.602Z" fill="#F1E8DF"/>
<path d="M67.7185 16.5996C66.8044 16.9722 66.4388 18.0692 66.8607 18.927C66.9029 19.0184 67.0576 18.9551 67.0294 18.8567C66.7904 18.0973 67.1279 17.1058 67.9506 16.8597C68.8084 16.6066 69.2725 17.1973 69.7858 17.7387C69.8491 17.802 69.9757 17.7598 69.9686 17.6613C69.8983 16.691 68.499 16.2832 67.7256 16.5996H67.7185Z" fill="#F9F6F2"/>
<path d="M75.0528 14.2656C74.1247 14.4344 73.2598 15.5102 73.6114 16.4595C73.6395 16.5368 73.7379 16.5227 73.745 16.4384C73.8293 15.5946 74.1458 14.7438 75.095 14.575C75.988 14.4133 76.6982 15.0813 77.0217 15.8477C77.0498 15.911 77.1623 15.911 77.1553 15.8266C77.092 14.8141 76.0373 14.0828 75.0599 14.2586L75.0528 14.2656Z" fill="#F9F6F2"/>
<path d="M84.4185 16.6851C83.7716 15.8132 82.0629 15.8202 81.634 16.9031C81.5988 16.9874 81.7254 17.0437 81.7817 16.9874C82.4075 16.3476 83.4974 16.0522 84.2005 16.7765C85.0584 17.6554 84.2779 18.9211 83.3145 19.2516C83.2724 19.2657 83.2724 19.336 83.3286 19.336C84.5099 19.2516 85.0935 17.5781 84.4255 16.6851H84.4185Z" fill="#F9F6F2"/>
<path d="M86.9011 21.7824C86.205 21.4519 85.0518 21.8668 85.0448 22.7246C85.0448 22.7738 85.1081 22.7879 85.1362 22.7457C85.4948 22.2605 86.0503 21.8035 86.6972 22.0426C87.3652 22.2887 87.5691 23.1606 87.2879 23.7512C87.2668 23.8004 87.3301 23.8637 87.3652 23.8145C87.8785 23.1676 87.6605 22.134 86.9011 21.7754V21.7824Z" fill="#F9F6F2"/>
<path d="M64.7372 20.9445C64.1465 20.1992 62.9371 20.2484 62.241 20.825C61.566 21.3805 61.2144 22.618 61.8542 23.3142C61.9246 23.3915 62.0371 23.3142 62.016 23.2227C61.8542 22.4422 61.7699 21.6547 62.459 21.0781C63.1129 20.5297 63.9637 20.6914 64.6739 21.0219C64.7231 21.043 64.7724 20.9867 64.7372 20.9445V20.9445Z" fill="#F9F6F2"/>
<path d="M69.6592 24.2432C69.3287 23.6877 68.4919 23.6173 68.0067 24.0041C67.5075 24.4049 67.402 25.2768 67.9364 25.6917C67.9575 25.7057 67.9786 25.6917 67.9716 25.6635C67.7325 25.1994 67.6903 24.5736 68.1263 24.201C68.5622 23.8283 69.174 23.976 69.5748 24.3064C69.624 24.3486 69.7013 24.2994 69.6662 24.2361L69.6592 24.2432Z" fill="#F9F6F2"/>
<path d="M73.7309 20.3325C73.0769 20.431 72.5214 21.2326 72.8238 21.8654C72.873 21.9779 73.0277 21.9146 73.0347 21.8092C73.0629 21.3099 73.2105 20.8036 73.759 20.656C74.3356 20.5013 74.863 20.9021 74.9825 21.4576C74.9895 21.4927 75.0458 21.4857 75.0458 21.4505C74.9966 20.8177 74.3848 20.2341 73.7309 20.3396V20.3325Z" fill="#F9F6F2"/>
<path d="M79.5603 22.7657C79.054 22.5548 78.4001 22.7939 78.2243 23.3283C78.2102 23.3634 78.2594 23.3915 78.2876 23.3634C78.5548 23.04 78.9696 22.822 79.3985 22.9556C79.8556 23.0962 80.0665 23.6587 79.9892 24.0947C79.9822 24.1439 80.0525 24.1861 80.0736 24.1299C80.3197 23.6166 80.0876 22.9907 79.5532 22.7657H79.5603Z" fill="#F9F6F2"/>
<path d="M72.3598 26.9097C71.7832 27.0362 71.4738 27.6902 71.741 28.2105C71.6356 27.7675 71.9098 27.212 72.3669 27.0995C72.9505 26.9589 73.281 27.5144 73.3513 27.9925C73.3583 28.0558 73.4568 28.0488 73.4708 27.9925C73.6466 27.3808 72.9364 26.7831 72.3528 26.9097H72.3598Z" fill="#F9F6F2"/>
<path d="M77.535 26.7532C76.9584 26.5633 76.4029 26.8938 76.2201 27.4423C76.2201 27.4493 76.2271 27.4563 76.2342 27.4423C76.4873 27.0626 77.0287 26.8305 77.4717 26.9782C77.9499 27.1399 78.1046 27.6462 78.1046 28.0962C78.1046 28.1806 78.21 28.1806 78.2382 28.1173C78.4632 27.5759 78.0694 26.929 77.535 26.7532V26.7532Z" fill="#F9F6F2"/>
<path d="M59.872 37.8502C59.4923 38.694 60.1884 39.9034 61.1658 39.7839C61.2642 39.7698 61.2994 39.6292 61.1939 39.6011C60.5118 39.4112 59.8298 38.701 60.1954 37.9486C60.54 37.2314 61.3486 37.2877 61.9885 37.4283C61.9885 37.4283 61.9955 37.4283 61.9885 37.4213C61.4963 36.6056 60.1814 37.1611 59.872 37.8502Z" fill="#F9F6F2"/>
<path d="M65.7434 42.8992C65.0824 42.2663 63.9714 42.8992 63.7745 43.6797C63.5284 44.6149 64.4636 45.6063 65.4058 45.3251C65.4832 45.304 65.4691 45.1915 65.3847 45.1844C64.6324 45.1633 63.7675 44.411 64.1472 43.5953C64.4285 43.0046 65.1457 42.85 65.7293 42.9062C65.7293 42.9062 65.7363 42.9062 65.7293 42.8992H65.7434Z" fill="#F9F6F2"/>
<path d="M62.8601 50.1256C62.2483 50.5124 61.3131 50.5757 60.8631 49.8936C60.406 49.2115 60.835 48.3607 61.4256 47.9248C61.4678 47.8966 61.4397 47.8334 61.3905 47.8404C60.4412 48.0232 60.1037 49.2889 60.5889 50.0553C61.0811 50.8288 62.389 51.0327 62.9796 50.2663C63.0359 50.1889 62.9655 50.0553 62.8671 50.1186L62.8601 50.1256Z" fill="#F9F6F2"/>
<path d="M63.3941 56.5538C62.8316 56.9194 61.9737 56.9616 61.6081 56.2866C61.4042 55.9069 61.5308 55.4288 61.798 55.1123C62.0441 54.817 62.3675 54.7678 62.698 54.6201C62.3113 54.381 61.805 54.7186 61.5519 55.0139C61.2354 55.3936 61.1018 55.921 61.3128 56.385C61.6714 57.1726 63.0074 57.4749 63.5277 56.6944C63.584 56.6101 63.4715 56.5046 63.3941 56.5608V56.5538Z" fill="#F9F6F2"/>
<path d="M70.4751 50.8866C69.7931 51.1327 69.111 51.4561 68.3657 51.2804C67.55 51.0905 66.9242 50.1553 67.4867 49.3818C67.5219 49.3326 67.4515 49.2834 67.4094 49.3185C66.7765 49.9162 66.9031 50.8585 67.5992 51.3577C68.5063 51.9976 69.7227 51.6952 70.5525 51.0694C70.6369 51.0061 70.5947 50.8374 70.4751 50.8796V50.8866Z" fill="#F9F6F2"/>
<path d="M87.4071 37.5602C87.0556 36.6601 85.9586 36.3437 85.1641 36.8148C85.8672 36.5336 86.8376 36.8148 87.1821 37.518C87.6181 38.404 86.9501 39.1915 86.1977 39.5501C86.1415 39.5782 86.1696 39.6767 86.2329 39.6696C87.1751 39.5782 87.7306 38.3899 87.4071 37.5531V37.5602Z" fill="#F9F6F2"/>
<path d="M83.2305 27.8379C82.9422 27.4442 82.3164 27.3035 81.9226 27.6129C81.8875 27.6411 81.9015 27.7114 81.9578 27.6903C82.3586 27.5707 82.8086 27.6059 83.0828 27.9575C83.35 28.302 83.2797 28.7802 83.0336 29.1107C83.0055 29.1458 83.0617 29.188 83.0969 29.1599C83.4766 28.8364 83.5328 28.2387 83.2375 27.8379H83.2305Z" fill="#F9F6F2"/>
<path d="M67.093 30.663C67.2055 30.2201 67.5711 30.0021 67.9438 29.8052C67.4375 29.6997 66.9664 30.1286 66.8117 30.5857C66.6359 31.1342 66.8961 31.7389 67.4235 31.9639C67.4867 31.992 67.5571 31.9147 67.5008 31.8584C67.1914 31.549 66.9734 31.099 67.0859 30.656L67.093 30.663Z" fill="#F9F6F2"/>
<path d="M88.575 42.2793C88.575 42.2793 88.5328 42.3285 88.5679 42.3426C89.3484 42.5817 90.1149 43.2778 89.9813 44.1708C89.8266 45.1833 88.9195 45.3662 88.0687 45.4154C87.9984 45.4154 87.9562 45.5208 88.0265 45.563C88.9125 46.006 90.0164 45.0849 90.1852 44.22C90.375 43.2496 89.5875 42.223 88.582 42.2863L88.575 42.2793Z" fill="#F9F6F2"/>
<path d="M82.8087 44.3613C82.7314 44.3191 82.64 44.4245 82.7103 44.4878C84.0603 45.6621 83.6103 47.3989 82.0212 48.0317C81.9579 48.0599 81.9579 48.1724 82.0423 48.1653C84.0182 48.0528 84.4611 45.2824 82.8158 44.3683L82.8087 44.3613Z" fill="#F9F6F2"/>
<path d="M78.6318 51.7225C77.3169 52.742 75.8894 52.5522 74.8136 51.3006C74.7996 51.2795 74.7644 51.3006 74.7714 51.3287C75.4113 52.96 77.7247 53.1991 78.7513 51.8139C78.8076 51.7365 78.695 51.6732 78.6318 51.7225V51.7225Z" fill="#F9F6F2"/>
<path d="M71.9943 57.7208C71.4529 58.0583 70.7568 58.213 70.2153 57.77C69.7231 57.3622 69.6809 56.7434 69.7934 56.1598C69.7934 56.1316 69.7583 56.0965 69.7372 56.1246C69.2801 56.7082 69.5192 57.6364 70.0817 58.0653C70.6865 58.5294 71.6568 58.4661 72.1209 57.8403C72.1772 57.763 72.0717 57.6715 71.9943 57.7137V57.7208Z" fill="#F9F6F2"/>
<path d="M84.9951 51.1381C84.967 51.0959 84.9107 51.1522 84.9318 51.1873C85.3045 51.9327 85.1709 52.9312 84.4818 53.4515C83.7927 53.9718 82.738 53.8312 82.1684 53.2054C82.1684 53.2054 82.1544 53.2054 82.1614 53.2124C82.752 53.9999 83.8771 54.2601 84.6998 53.6484C85.4873 53.0577 85.5998 51.8975 85.0021 51.1381H84.9951Z" fill="#F9F6F2"/>
<path d="M89.074 50.6963C89.7631 50.9635 90.3959 51.6034 90.3608 52.3839C90.3256 53.2417 89.6576 53.6425 88.9474 53.9027C88.8701 53.9308 88.8841 54.0433 88.9685 54.0504C90.9866 54.191 91.1413 50.8018 89.081 50.6963H89.074Z" fill="#F9F6F2"/>
<path d="M80.1719 58.1639C79.8906 58.8741 79.3562 59.5702 78.4843 59.4085C77.7108 59.2608 77.1413 58.4452 77.2467 57.6717C77.2467 57.6576 77.2257 57.6576 77.2257 57.6717C77.0217 58.5577 77.4999 59.514 78.4491 59.6757C79.3 59.8163 80.3758 59.1202 80.3266 58.192C80.3266 58.1006 80.207 58.0936 80.1719 58.1709V58.1639Z" fill="#F9F6F2"/>
<path d="M67.325 61.9951C66.65 62.2694 65.7922 62.2834 65.3351 61.6014C64.9132 60.9685 65.1663 60.0333 65.6937 59.5552C65.7078 59.5411 65.6937 59.5271 65.6796 59.5341C64.8077 59.9349 64.5265 61.0389 65.082 61.8264C65.5812 62.5436 66.7695 62.8038 67.4305 62.1709C67.5008 62.1006 67.4305 61.953 67.325 61.9951V61.9951Z" fill="#F9F6F2"/>
<path d="M74.4199 64.2805C73.9418 64.7164 73.2597 64.9907 72.669 64.5688C72.1346 64.1891 72.0854 63.5422 72.2331 62.9585C72.2401 62.9304 72.1979 62.9023 72.1768 62.9234C71.7128 63.4859 71.9307 64.407 72.4862 64.8219C73.1191 65.3001 74.216 65.1454 74.5605 64.3859C74.6027 64.2945 74.4973 64.1961 74.4129 64.2734L74.4199 64.2805Z" fill="#F9F6F2"/>
<path d="M82.9564 63.5693C82.9494 63.4779 82.8298 63.4568 82.7947 63.5482C82.5767 64.1599 82.2603 64.7365 81.5712 64.9053C80.9172 65.06 80.2703 64.6943 79.8625 64.2162C79.8625 64.2162 79.8485 64.2162 79.8555 64.2162C80.4602 65.7772 83.1533 65.292 82.9634 63.5693H82.9564Z" fill="#F9F6F2"/>
<path d="M86.6338 58.8812C86.3174 59.3453 86.0713 59.9781 85.5369 60.2242C85.3189 60.3227 85.0306 60.3297 84.8056 60.2383C84.5103 60.1258 84.4611 59.9078 84.2923 59.6758C84.2642 59.6406 84.2079 59.6336 84.1798 59.6758C83.8423 60.2453 84.8197 60.6532 85.2486 60.6321C86.0924 60.5828 86.5987 59.6687 86.7745 58.9445C86.7956 58.8601 86.683 58.8109 86.6338 58.8882V58.8812Z" fill="#F9F6F2"/>
<path d="M69.125 65.7788C67.9296 66.8898 66.1928 66.6085 65.6655 64.9772C65.6514 64.9421 65.5951 64.9491 65.6022 64.9842C65.7709 66.8195 68.3023 67.5578 69.2867 65.8984C69.343 65.7999 69.2094 65.7015 69.132 65.7788H69.125Z" fill="#F9F6F2"/>
<path d="M65.2294 69.913C64.695 70.363 63.9566 70.6302 63.2957 70.2856C62.691 69.9622 62.3253 69.1254 62.48 68.4504C62.4941 68.3871 62.4097 68.366 62.3816 68.4223C62.0511 69.2661 62.2902 70.2294 63.1621 70.6583C63.9285 71.038 64.9692 70.806 65.3981 70.0395C65.4544 69.9341 65.3208 69.8356 65.2364 69.913H65.2294Z" fill="#F9F6F2"/>
<path d="M78.9417 68.3103C78.6112 68.8376 78.2385 69.365 77.5424 69.358C76.8533 69.3509 76.34 68.7743 76.2064 68.1345C76.1642 67.9376 75.8408 67.9798 75.8548 68.1837C75.9251 69.0345 76.5861 69.7658 77.465 69.808C78.2666 69.8502 79.2159 69.2384 79.2089 68.3735C79.2089 68.2259 79.012 68.1837 78.9417 68.3032V68.3103Z" fill="#F9F6F2"/>
<path d="M73.9771 72.7824C73.4497 73.3027 72.6903 73.6402 71.9379 73.4574C71.1856 73.2746 70.7777 72.691 70.4824 72.03C70.4332 71.9245 70.2644 71.9808 70.2715 72.0862C70.3629 74.0692 73.2177 74.5825 74.1388 72.9089C74.1951 72.8035 74.0615 72.698 73.9771 72.7824V72.7824Z" fill="#F9F6F2"/>
<path d="M61.4048 62.3952C61.011 62.5781 60.8212 63.0421 60.8493 63.45C60.8633 63.6609 60.9196 63.8789 61.0391 64.0477C61.1516 64.2094 61.2993 64.2024 61.454 64.3219C61.461 64.3289 61.4751 64.3149 61.4681 64.3078C61.3767 64.2094 61.3767 64.0547 61.3485 63.9281C61.3063 63.7664 61.2641 63.6187 61.2641 63.45C61.2641 63.1125 61.3978 62.8382 61.5735 62.564C61.6439 62.4515 61.5103 62.346 61.4048 62.3952V62.3952Z" fill="#F9F6F2"/>
<path d="M89.1371 64.3805C89.0738 63.6141 88.7012 62.8476 88.005 62.475C87.8433 62.3906 87.6534 62.6086 87.8011 62.7351C88.3214 63.1852 88.666 63.7547 88.7082 64.4508C88.7504 65.1681 88.441 65.6321 88.1457 66.2369C88.0964 66.3353 88.1949 66.4267 88.2863 66.3775C88.9824 66.054 89.1863 65.0696 89.1301 64.3735L89.1371 64.3805Z" fill="#F9F6F2"/>
<path d="M84.8616 69.9064C84.8123 69.8642 84.742 69.8642 84.7069 69.9275C84.6014 70.1243 84.6295 70.3493 84.5733 70.5673C84.4959 70.8486 84.3412 71.1158 84.1303 71.3267C83.7014 71.7557 83.0685 71.9666 82.4779 71.7908C82.3091 71.7416 82.1966 72.0018 82.3583 72.0791C83.0474 72.4096 83.7998 72.2408 84.3623 71.7346C84.7491 71.39 85.403 70.3704 84.8545 69.9134L84.8616 69.9064Z" fill="#F9F6F2"/>
<path d="M67.5222 75.5749C66.9175 75.9053 66.3971 76.2991 65.6659 76.0952C65.0049 75.9124 64.5619 75.3709 64.351 74.7451C64.3017 74.5975 64.0345 74.6045 64.0556 74.7873C64.147 75.5889 64.7096 76.2569 65.483 76.496C66.2284 76.728 67.3464 76.5311 67.705 75.7577C67.7542 75.6452 67.6488 75.5116 67.5292 75.5749H67.5222Z" fill="#F9F6F2"/>
<path d="M64.9977 81.9451C64.386 82.374 63.7461 82.7116 62.9727 82.5076C62.164 82.2967 61.6085 81.5092 61.5031 80.7005C61.496 80.6372 61.4046 80.6302 61.3976 80.7005C61.3202 81.6146 61.8406 82.5006 62.7266 82.8241C63.5422 83.1194 64.6813 82.8733 65.1173 82.0647C65.1524 81.9943 65.0751 81.8959 64.9977 81.9451V81.9451Z" fill="#F9F6F2"/>
<path d="M75.2711 78.9846C74.5117 79.3081 73.8999 79.8847 73.0561 79.9972C72.3038 80.0956 71.3897 79.8073 71.0662 79.069C71.0311 78.9917 70.9045 79.0479 70.9256 79.1253C71.5584 81.2137 74.364 80.4683 75.3977 79.1393C75.468 79.0479 75.3836 78.9354 75.2781 78.9846H75.2711Z" fill="#F9F6F2"/>
<path d="M90.8383 75.5251C90.325 74.8852 88.8484 74.0555 88.1804 74.9485C88.1312 75.0118 88.2015 75.1032 88.2718 75.1032C88.7359 75.0891 89.1086 74.9555 89.5726 75.1383C90.0438 75.3212 90.4446 75.6798 90.6836 76.1228C91.2672 77.1986 90.8032 78.2955 91.0001 79.4135C91.0211 79.519 91.1899 79.5471 91.2391 79.4417C91.7595 78.3307 91.6188 76.5025 90.8454 75.5321L90.8383 75.5251Z" fill="#F9F6F2"/>
<path d="M64.477 91.0719C63.7949 90.7344 63.1551 90.2984 62.9933 89.4968C62.8387 88.7023 63.2676 88.0554 63.7106 87.4507C63.7387 87.4155 63.6895 87.3592 63.6473 87.3733C61.7066 88.0061 62.4589 91.304 64.4067 91.311C64.5333 91.311 64.5895 91.1282 64.47 91.0719H64.477Z" fill="#F9F6F2"/>
<path d="M66.4603 99.2568C65.7009 99.3482 64.822 99.1372 64.4141 98.42C64.0133 97.7028 64.2665 96.6973 64.8852 96.1769C64.9696 96.1066 64.8641 95.959 64.7657 96.0222C63.9008 96.5496 63.486 97.6395 63.9711 98.5888C64.4352 99.4888 65.5954 99.9669 66.5095 99.4677C66.6009 99.4185 66.5658 99.2497 66.4533 99.2638L66.4603 99.2568Z" fill="#F9F6F2"/>
<path d="M73.0414 86.5161C72.0922 86.6497 71.2343 87.17 70.2429 87.0927C69.5046 87.0364 68.6115 86.5934 68.2811 85.8903C68.2389 85.7989 68.0982 85.8621 68.1264 85.9536C68.2037 86.2348 68.1404 86.3051 68.3162 86.5653C68.4428 86.7481 68.5975 86.9028 68.7733 87.0364C69.1389 87.3177 69.5749 87.4794 70.0319 87.5427C71.0726 87.6904 72.3101 87.3317 73.1328 86.6848C73.2172 86.6145 73.1188 86.509 73.0414 86.5231V86.5161Z" fill="#F9F6F2"/>
<path d="M73.6045 93.7719C72.8873 94.3836 71.9591 94.8055 71.0028 94.5453C70.0606 94.2852 69.4207 93.4343 69.2379 92.5062C69.2097 92.3515 68.9566 92.3866 68.9636 92.5413C69.0129 93.6734 69.7863 94.6789 70.8833 95.0094C71.9521 95.3258 73.2459 94.925 73.7943 93.9195C73.8647 93.8 73.71 93.6875 73.6045 93.7719V93.7719Z" fill="#F9F6F2"/>
<path d="M84.5665 76.319C84.5454 76.1573 84.3204 76.2136 84.3063 76.3542C84.222 77.2964 84.3134 78.4285 83.6454 79.195C83.0477 79.877 82.3516 79.8067 81.5711 79.5958C81.4796 79.5676 81.4093 79.6731 81.4515 79.7575C81.8734 80.6224 83.1813 80.2075 83.7508 79.7153C84.686 78.9067 84.7282 77.4511 84.5665 76.319V76.319Z" fill="#F9F6F2"/>
<path d="M83.1953 85.7767C82.5203 86.1915 81.7538 86.4798 80.9663 86.2056C80.2069 85.9454 79.7287 85.2563 79.5529 84.5039C79.5108 84.3211 79.2014 84.3563 79.2154 84.5461C79.3772 86.529 82.0913 87.6963 83.4062 85.9806C83.4977 85.861 83.3219 85.6993 83.2023 85.7767H83.1953Z" fill="#F9F6F2"/>
<path d="M91.1059 84.9893C90.5504 84.5182 89.6504 84.4057 89.1863 85.0456C89.1371 85.1159 89.2355 85.2214 89.3129 85.1722C89.8965 84.7432 90.7192 85.0315 91.0848 85.6152C91.5138 86.3042 91.3239 87.2254 91.331 87.9848C91.331 88.0973 91.4856 88.1114 91.5208 88.0059C91.8513 87.0496 91.9779 85.7066 91.113 84.9823L91.1059 84.9893Z" fill="#F9F6F2"/>
<path d="M85.2274 90.1087C84.468 89.6025 83.4554 89.9119 83.0265 90.6853C82.9773 90.7767 83.1109 90.8892 83.1812 90.8049C83.582 90.3056 84.3836 90.1087 84.9391 90.4814C85.5157 90.8752 85.5227 91.5994 85.3469 92.2041C85.3118 92.3237 85.4735 92.4151 85.5579 92.3307C86.1837 91.7049 85.9165 90.5728 85.2204 90.1158L85.2274 90.1087Z" fill="#F9F6F2"/>
<path d="M80.1299 94.9735C79.2861 94.861 78.4001 95.1915 78.0415 96.0141C77.711 96.7806 77.943 97.8705 78.7235 98.2713C78.8361 98.3275 78.9345 98.1939 78.8571 98.1025C78.4001 97.54 78.0626 96.879 78.3649 96.1477C78.6532 95.4587 79.3775 95.0297 80.1158 95.1141C80.2002 95.1211 80.2142 94.9805 80.1369 94.9735H80.1299Z" fill="#F9F6F2"/>
<path d="M75.6293 101.654C74.4761 102.42 73.2948 102.125 72.4299 101.113C72.3525 101.021 72.2049 101.113 72.233 101.225C72.5916 102.702 74.9683 102.983 75.8261 101.844C75.9105 101.731 75.7418 101.577 75.6293 101.647V101.654Z" fill="#F9F6F2"/>
<path d="M87.9557 100.263C87.2174 100.783 86.5775 101.48 85.6915 101.754C84.8969 102 83.8844 101.838 83.3852 101.114C83.3219 101.015 83.1812 101.1 83.2305 101.205C83.6242 102.07 84.5594 102.408 85.4665 102.267C86.5494 102.105 87.4986 101.29 88.1385 100.446C88.2159 100.34 88.0612 100.186 87.9557 100.263Z" fill="#F9F6F2"/>
<path d="M58.1772 92.9004C57.5866 92.7176 56.9959 92.7739 56.8131 92.0285C56.6725 91.4379 56.9959 91.0019 57.1788 90.4745C57.1928 90.4324 57.1506 90.3972 57.1084 90.4042C56.3279 90.5589 56.1521 91.6699 56.3561 92.3098C56.5811 93.0129 57.4952 93.6598 58.2194 93.2028C58.339 93.1254 58.3179 92.9496 58.1843 92.9075L58.1772 92.9004Z" fill="#F9F6F2"/>
<path d="M54.4644 103.447C53.7754 103.11 53.1636 102.801 52.7909 102.083C52.362 101.254 52.6151 100.403 53.5503 100.114C53.7191 100.065 53.6488 99.8121 53.48 99.8543C52.4675 100.122 51.8698 100.832 52.1722 101.908C52.4253 102.808 53.3605 103.855 54.3801 103.757C54.5207 103.743 54.6191 103.532 54.4644 103.454V103.447Z" fill="#F9F6F2"/>
<path d="M61.0178 103.554C60.6029 103.575 60.2092 103.708 59.8084 103.519C59.4708 103.35 59.2388 103.019 59.0911 102.682C58.9575 102.379 58.8732 102.028 58.8802 101.697C58.8802 101.564 58.9013 101.444 58.9364 101.318C58.9716 101.177 58.9997 101.128 59.0349 101.114C59.1825 101.051 59.1263 100.847 58.9716 100.875C58.1278 100.994 58.388 102.344 58.613 102.9C58.9997 103.849 60.2091 104.665 61.1514 103.863C61.2709 103.765 61.1725 103.554 61.0248 103.561L61.0178 103.554Z" fill="#F9F6F2"/>
<path d="M95.7961 93.0889C95.311 92.442 94.432 92.0763 93.6937 91.8162C93.4406 91.7247 93.2718 92.1256 93.5109 92.2521C94.0875 92.5474 94.7344 92.7654 95.2196 93.2154C95.8243 93.778 95.6977 94.453 95.543 95.1913C95.5219 95.3108 95.6696 95.3812 95.7399 95.2757C96.1618 94.6077 96.2884 93.7569 95.7891 93.0889H95.7961Z" fill="#F9F6F2"/>
<path d="M90.4309 96.1628C89.7981 95.108 88.1387 94.9252 87.3089 95.8253C87.1894 95.9589 87.3511 96.212 87.5128 96.0924C88.448 95.3963 89.3551 95.8463 90.2481 96.3526C90.3677 96.4159 90.5083 96.2823 90.438 96.1628H90.4309Z" fill="#F9F6F2"/>
<path d="M92.9128 101.811C92.8706 101.811 92.8495 101.867 92.8777 101.895C93.3347 102.359 93.7777 102.767 94.0027 103.407C94.2418 104.096 94.1012 104.616 93.9394 105.291C93.9043 105.425 94.059 105.502 94.1574 105.418C95.2754 104.49 94.2699 101.958 92.9128 101.811V101.811Z" fill="#F9F6F2"/>
<path d="M98.1375 99.4906C98.0743 99.4414 98.011 99.5328 98.0391 99.5891C98.2993 100.081 98.679 100.482 98.9884 100.946C99.4103 101.593 99.4806 102.099 99.2485 102.824C99.1993 102.978 99.4032 103.091 99.5157 102.978C100.655 101.818 99.0516 100.187 98.1375 99.4836V99.4906Z" fill="#F9F6F2"/>
<path d="M85.6509 76.5225C85.6298 76.1991 85.5594 75.8756 85.4329 75.5803C85.2782 75.2146 85.0391 74.8982 84.6946 74.6802C84.1461 74.3286 83.6328 74.3216 83.1265 74.4552C82.8031 74.5396 82.4796 74.6873 82.1562 74.8349C82.0085 74.9052 81.8608 74.9685 81.7132 75.0318C80.567 75.531 79.4842 76.1639 78.4927 76.9303C78.3943 77.0077 78.0075 77.3382 77.5505 77.746C77.3114 77.964 77.0513 78.203 76.8051 78.4421C76.2707 78.9625 75.7856 79.4758 75.6801 79.7359C75.652 79.8062 75.652 79.8555 75.6801 79.8836C75.6309 79.8273 75.5746 79.7852 75.5113 79.743C75.1246 79.4758 74.5832 79.4336 74.105 79.4898C73.8027 79.525 73.4792 79.5672 73.1979 79.7008C73.0643 79.4828 72.8956 79.3 72.7057 79.1101C72.4456 78.8499 72.1784 78.5898 71.9041 78.3296C71.3697 77.8233 70.8072 77.3311 70.2166 76.8881C70.0619 76.7756 69.9142 76.6631 69.7595 76.5577C69.5908 76.417 69.422 76.2764 69.2532 76.1428C68.6837 75.6998 68.0649 75.2428 67.3828 75.0107C67.0664 74.9052 66.7359 74.842 66.3844 74.856C66.3492 74.856 66.3211 74.856 66.2859 74.856C64.964 74.9474 63.6631 76.0022 63.7546 77.4155C63.8108 78.3296 64.4225 79.1382 64.4788 80.0523C64.514 80.5938 64.3452 81.1282 64.2257 81.6556C64.0991 82.1829 64.0147 82.7525 64.2046 83.2587C64.3804 83.7299 64.8796 84.0393 65.4492 84.215C65.7867 84.3205 66.1453 84.3838 66.4687 84.4049C66.7078 84.4189 66.9328 84.4119 67.1156 84.3908C67.9032 84.2924 68.6626 84.0041 69.3939 83.7088C70.1322 83.4064 70.8494 83.0548 71.5385 82.654C71.9182 82.4361 72.2838 82.204 72.6425 81.9579C72.8253 81.8313 73.0081 81.7048 73.1839 81.5712H73.1909C73.2472 81.5852 73.2964 81.6134 73.3526 81.6274C73.5144 81.6837 73.6831 81.7259 73.8519 81.754C74.2316 81.8102 74.6183 81.8032 74.9558 81.7259C75.2723 81.6555 75.5817 81.5149 75.7926 81.2618L75.8067 81.2407C75.8981 81.3251 75.9895 81.4024 76.0879 81.4798C76.3762 81.7048 76.6715 81.9087 76.9739 82.1126C77.5716 82.5134 78.1974 82.8861 78.8443 83.2095C79.5123 83.533 80.2014 83.8213 80.8975 84.0603C81.7413 84.3486 82.9156 84.3416 83.8297 83.9478C83.9281 83.9056 84.0195 83.8635 84.1109 83.8072C84.7789 83.4345 85.2571 82.8157 85.2571 81.9087C85.2571 81.2758 84.9758 80.6711 84.9477 80.0312C84.9125 79.2226 85.2852 78.4632 85.5173 77.6897C85.5735 77.5069 85.6087 77.3171 85.6298 77.1202C85.6509 76.9163 85.6579 76.7124 85.6438 76.5014L85.6509 76.5225Z" fill="#9F4576"/>
<path d="M79.5963 79.7431L79.5682 79.5955C79.5401 79.497 79.4838 79.4197 79.4135 79.3494L79.287 79.258C79.1956 79.2087 79.0971 79.1876 78.9916 79.1947C78.9143 79.1947 78.844 79.2158 78.7807 79.2509C78.7104 79.279 78.6471 79.3212 78.5979 79.3775C78.5416 79.4337 78.5065 79.5041 78.4854 79.5744C78.4502 79.6447 78.4432 79.715 78.4502 79.7924L78.4783 79.94C78.5065 80.0385 78.5627 80.1158 78.633 80.1861L78.7596 80.2775C78.851 80.3268 78.9494 80.3478 79.0549 80.3408C79.1323 80.3408 79.2026 80.3197 79.2659 80.2846C79.3362 80.2564 79.3995 80.2143 79.4487 80.158C79.5049 80.1017 79.5401 80.0314 79.5612 79.9611C79.5964 79.8908 79.6034 79.8205 79.5963 79.7431Z" fill="#FFA265"/>
<path d="M81.2557 81.874V81.8599C81.094 81.6771 80.8831 81.5646 80.637 81.6419C80.419 81.7123 80.2502 81.9443 80.2713 82.1763C80.2924 82.3873 80.419 82.5701 80.6229 82.6404C80.8901 82.7389 81.1151 82.6123 81.2698 82.3873V82.3732C81.3682 82.2467 81.3542 81.9935 81.2557 81.874V81.874Z" fill="#FFA265"/>
<path d="M81.8885 78.7243C81.6213 78.7384 81.4103 78.9774 81.4244 79.2376C81.4384 79.5048 81.6775 79.7157 81.9377 79.7017C82.2049 79.6876 82.4158 79.4486 82.4018 79.1884C82.3877 78.9212 82.1486 78.7102 81.8885 78.7243Z" fill="#FFA265"/>
<path d="M80.0115 76.0373C79.7513 76.0513 79.5333 76.2904 79.5474 76.5506C79.5615 76.8178 79.7935 77.0217 80.0607 77.0147C80.3209 77.0006 80.5389 76.7615 80.5248 76.5014C80.5107 76.2342 80.2787 76.0303 80.0115 76.0373Z" fill="#FFA265"/>
<path d="M82.9224 76.571C82.6622 76.5851 82.4583 76.8171 82.4724 77.0702C82.4864 77.3304 82.7185 77.5343 82.9716 77.5203C83.2318 77.5062 83.4357 77.2742 83.4216 77.021C83.4076 76.7609 83.1755 76.5569 82.9224 76.571Z" fill="#FFA265"/>
<path d="M84.3216 80.621C84.3076 80.3749 84.0896 80.1781 83.8435 80.1921C83.5903 80.2062 83.4005 80.4242 83.4146 80.6703V80.6984C83.4356 81.289 84.3638 81.2398 84.3287 80.6492V80.621H84.3216Z" fill="#FFA265"/>
<path d="M84.1176 83.8293L84.1387 83.8082C84.188 83.759 84.2231 83.7027 84.2372 83.6324C84.2653 83.5691 84.2794 83.5059 84.2723 83.4355C84.2653 83.3933 84.2583 83.3512 84.2513 83.309C84.2231 83.2246 84.1739 83.1543 84.1106 83.091C84.0755 83.0629 84.0333 83.0418 83.9981 83.0136C83.9137 82.9715 83.8294 82.9504 83.7379 82.9574C83.6676 82.9574 83.6114 82.9785 83.5481 83.0066C83.4848 83.0277 83.4356 83.0699 83.3864 83.1191C83.3371 83.1683 83.302 83.2246 83.2879 83.2949C83.2598 83.3582 83.2457 83.4215 83.2528 83.4918C83.2598 83.534 83.2668 83.5762 83.2739 83.6184C83.302 83.7027 83.3512 83.773 83.4145 83.8363C83.4496 83.8645 83.4918 83.8856 83.527 83.9137C83.6114 83.9559 83.6958 83.977 83.7872 83.9699C83.8012 83.9699 83.8153 83.9699 83.8294 83.9699L84.1106 83.8293H84.1176Z" fill="#FFA265"/>
<path d="M85.6509 76.5235H85.6438C85.5876 76.5586 85.5243 76.5727 85.461 76.5797C85.3696 76.5797 85.2852 76.5657 85.2079 76.5235C85.1727 76.4954 85.1376 76.4743 85.0954 76.4461C85.0321 76.3899 84.9829 76.3125 84.9618 76.2282C84.9547 76.186 84.9477 76.1438 84.9407 76.1016C84.9407 76.0313 84.9407 75.968 84.9758 75.9117C84.9899 75.8484 85.025 75.7852 85.0743 75.7359C85.1165 75.6867 85.1727 75.6516 85.229 75.6234C85.2852 75.5883 85.3485 75.5742 85.4118 75.5742H85.4399C85.5665 75.8695 85.6368 76.193 85.6579 76.5164L85.6509 76.5235Z" fill="#FFA265"/>
<path d="M82.9922 74.8703H82.9852C82.936 74.9336 82.8797 74.9758 82.8165 74.9969C82.7743 75.025 82.7321 75.0321 82.6899 75.0391C82.6477 75.0532 82.5985 75.0532 82.5563 75.0391C82.5071 75.0391 82.4649 75.0321 82.4227 75.011C82.3524 74.9899 82.2891 74.9547 82.2399 74.9055C82.2188 74.8774 82.1907 74.8492 82.1696 74.8211C82.493 74.6735 82.8165 74.5258 83.1399 74.4414C83.154 74.5961 83.1048 74.7438 82.9993 74.8633L82.9922 74.8703Z" fill="#FFA265"/>
<path d="M77.8314 78.1811C77.8595 78.4694 77.5994 78.7366 77.3181 78.7506C77.0861 78.7647 76.8962 78.6311 76.8048 78.4412C77.0509 78.2022 77.3111 77.9631 77.5502 77.7451C77.7048 77.8365 77.8103 77.9983 77.8244 78.1881L77.8314 78.1811Z" fill="#FFA265"/>
<path d="M77.6906 81.3187C77.6625 81.2344 77.6203 81.164 77.55 81.1008L77.4375 81.0234C77.3531 80.9812 77.2687 80.9601 77.1773 80.9672C77.107 80.9672 77.0507 80.9883 76.9945 81.0164C76.9312 81.0375 76.882 81.0797 76.8327 81.1289C76.7132 81.2625 76.671 81.4523 76.7202 81.6281V81.6563L76.7835 81.7688C76.8187 81.825 76.8609 81.8742 76.9241 81.9024C76.9593 81.9305 76.9945 81.9516 77.0437 81.9656C77.107 81.9938 77.1703 82.0008 77.2335 82.0008L77.3601 81.9797L77.4726 81.9234C77.5289 81.8883 77.5781 81.8461 77.6062 81.7828C77.6484 81.7336 77.6765 81.6703 77.6906 81.6V81.5719C77.7117 81.4875 77.7117 81.3961 77.6836 81.3117L77.6906 81.3187Z" fill="#FFA265"/>
<path d="M76.1441 80.2215C76.1441 80.2215 76.1441 80.2215 76.1441 80.2285C76.1441 80.3199 76.13 80.4114 76.0878 80.4887L76.0105 80.6012C75.9683 80.6504 75.912 80.6926 75.8487 80.7137C75.7925 80.7489 75.7292 80.7629 75.6589 80.7629H75.6519C75.5815 80.77 75.5112 80.7629 75.4479 80.7278C75.3987 80.7208 75.3636 80.6997 75.3214 80.6645C75.2581 80.6293 75.2159 80.5801 75.1807 80.5239C75.1596 80.4817 75.1456 80.4465 75.1245 80.4043L75.1034 80.2707V80.1371C75.1315 80.0949 75.1456 80.0457 75.1596 80.0035L75.237 79.891C75.2792 79.8348 75.3354 79.7996 75.3987 79.7785C75.4339 79.7574 75.469 79.7434 75.5042 79.7434C75.5675 79.7856 75.6167 79.8348 75.673 79.884C75.6448 79.8559 75.6448 79.7996 75.673 79.7363C75.7151 79.7363 75.7503 79.7434 75.7855 79.7645C75.8347 79.7715 75.8769 79.7926 75.912 79.8277C75.9753 79.8629 76.0175 79.9121 76.0527 79.9684C76.0738 80.0106 76.0878 80.0457 76.1089 80.0879L76.13 80.2215H76.1441Z" fill="#FFA265"/>
<path d="M74.2453 81.2344C74.2664 81.4805 74.0835 81.7055 73.8515 81.7759C73.6757 81.7477 73.5069 81.7055 73.3522 81.6493C73.2538 81.5579 73.1905 81.4313 73.1765 81.2907C73.1483 81.0024 73.4015 80.7422 73.6827 80.7281C73.9781 80.7141 74.2171 80.9461 74.2453 81.2344Z" fill="#FFA265"/>
<path d="M72.7966 79.5623C72.7685 79.4709 72.7192 79.3936 72.6489 79.3303L72.5294 79.2459C72.438 79.2037 72.3466 79.1826 72.2481 79.1826C72.1778 79.1826 72.1075 79.2037 72.0442 79.2389C71.9739 79.267 71.9176 79.3022 71.8755 79.3584C71.8192 79.4147 71.784 79.4779 71.77 79.5483C71.7419 79.6115 71.7278 79.6819 71.7348 79.7592L71.7629 79.8998C71.7911 79.9913 71.8403 80.0686 71.9106 80.1319L72.0301 80.2163C72.1216 80.2584 72.213 80.2795 72.3114 80.2795C72.3817 80.2795 72.452 80.2584 72.5153 80.2233C72.5856 80.1952 72.6419 80.16 72.6841 80.1038C72.7403 80.0475 72.7755 79.9842 72.7896 79.9139C72.8177 79.8506 72.8317 79.7803 72.8247 79.7029L72.7966 79.5623Z" fill="#FFA265"/>
<path d="M70.7507 82.3446C70.7226 82.2602 70.6804 82.1969 70.6171 82.1336L70.5116 82.0563C70.4343 82.0141 70.3499 82 70.2655 82C70.2022 82 70.139 82.0141 70.0897 82.0492C70.0335 82.0703 69.9772 82.1055 69.935 82.1547C69.8718 82.218 69.8366 82.2953 69.8155 82.3867C69.8014 82.4711 69.8014 82.5555 69.8296 82.6328V82.661C69.8647 82.7383 69.9069 82.8086 69.9702 82.8649C70.0054 82.893 70.0405 82.9211 70.0757 82.9422C70.153 82.9844 70.2304 82.9985 70.3148 82.9915C70.3991 82.9915 70.4765 82.9633 70.5468 82.9211C70.582 82.893 70.6171 82.8719 70.6452 82.8368C70.7015 82.7735 70.7437 82.6961 70.7648 82.6117V82.5836C70.7859 82.4992 70.7788 82.4149 70.7577 82.3375L70.7507 82.3446Z" fill="#FFA265"/>
<path d="M69.4845 79.7145V79.6934C69.4494 79.6161 69.4072 79.5457 69.3439 79.4895C69.2806 79.4332 69.2033 79.3911 69.1189 79.37H68.9853C68.922 79.3629 68.8658 79.377 68.8095 79.4051C68.7673 79.4192 68.7322 79.4403 68.704 79.4684C68.6548 79.5036 68.6126 79.5528 68.5845 79.6161L68.5423 79.7356V79.8622C68.5353 79.9254 68.5493 79.9817 68.5775 80.038C68.5986 80.0942 68.6337 80.1434 68.6829 80.1856C68.7462 80.2489 68.8236 80.2911 68.908 80.3051C68.9923 80.3192 69.0697 80.3192 69.1541 80.2911H69.1752C69.2314 80.263 69.2877 80.2348 69.3299 80.1926C69.3791 80.1575 69.4213 80.1083 69.4424 80.052L69.4845 79.9395C69.4986 79.8622 69.4986 79.7848 69.4705 79.7075L69.4845 79.7145Z" fill="#FFA265"/>
<path d="M69.8436 76.8327C69.5834 76.8467 69.3444 77.0928 69.3725 77.36C69.4006 77.6272 69.6186 77.8452 69.8999 77.8312C70.16 77.8171 70.3991 77.571 70.371 77.3038C70.3429 77.0366 70.1249 76.8186 69.8436 76.8327Z" fill="#FFA265"/>
<path d="M67.6707 81.6432C67.4105 81.6573 67.1785 81.8964 67.1996 82.1636C67.2277 82.4308 67.4457 82.6487 67.7199 82.6347C67.9801 82.6206 68.2121 82.3815 68.191 82.1143C68.1629 81.8471 67.9449 81.6292 67.6707 81.6432Z" fill="#FFA265"/>
<path d="M67.425 77.8379C67.3829 77.7676 67.3055 77.6972 67.2282 77.6691C67.1508 77.6269 67.0664 77.6129 66.9821 77.6199C66.8977 77.6199 66.8203 77.648 66.75 77.6972C66.6024 77.7886 66.518 77.9574 66.532 78.1262C66.5391 78.2949 66.6445 78.4496 66.7922 78.527C66.8695 78.5691 66.9539 78.5832 67.0383 78.5762C67.1227 78.5762 67.2 78.5481 67.2703 78.4988C67.3407 78.4637 67.418 78.3793 67.4461 78.309L67.4883 78.1894C67.4883 78.1473 67.4883 78.1051 67.4954 78.0699C67.4954 77.9926 67.4672 77.9082 67.425 77.8379V77.8379Z" fill="#FFA265"/>
<path d="M65.3855 80.6227C65.1183 80.6368 64.8793 80.8899 64.9003 81.1571C64.9285 81.4313 65.1535 81.6563 65.4347 81.6423C65.7019 81.6282 65.941 81.3751 65.9199 81.1079C65.8918 80.8336 65.6668 80.6086 65.3855 80.6227Z" fill="#FFA265"/>
<path d="M66.4826 84.3C66.4826 84.3422 66.4826 84.3844 66.4615 84.4196C66.131 84.3985 65.7724 84.3352 65.4419 84.2297V84.1664C65.47 84.075 65.5052 83.9906 65.5755 83.9203C65.6388 83.857 65.7091 83.8078 65.8005 83.7797H65.8357C65.8989 83.7516 65.9622 83.7445 66.0255 83.7516C66.0958 83.7516 66.1591 83.7656 66.2154 83.8008L66.3279 83.8781L66.4122 83.9766C66.4474 84.0328 66.4755 84.0891 66.4755 84.1594C66.4896 84.2016 66.4896 84.2438 66.4755 84.286L66.4826 84.3Z" fill="#FFA265"/>
<path d="M65.3221 76.9522C65.294 76.8608 65.2377 76.7764 65.1674 76.7131L65.0478 76.6287C64.9564 76.5865 64.865 76.5654 64.7666 76.5654C64.6963 76.5654 64.626 76.5865 64.5627 76.6217C64.4924 76.6498 64.4361 76.685 64.3869 76.7412C64.3306 76.7975 64.2955 76.8608 64.2744 76.9311C64.2463 77.0014 64.2322 77.0717 64.2392 77.142L64.2673 77.2827C64.2955 77.3741 64.3517 77.4584 64.422 77.5217L64.5416 77.6061C64.633 77.6483 64.7244 77.6694 64.8228 77.6694C64.8932 77.6694 64.9635 77.6483 65.0268 77.6131C65.0971 77.585 65.1533 77.5498 65.2025 77.4936C65.2588 77.4373 65.294 77.3741 65.315 77.3037C65.3432 77.2334 65.3572 77.1631 65.3502 77.0928L65.3221 76.9522Z" fill="#FFA265"/>
<path d="M67.3825 75.0188C67.3825 75.0961 67.3825 75.1664 67.3473 75.2297C67.3262 75.307 67.2911 75.3703 67.2348 75.4266C67.1856 75.4828 67.1294 75.525 67.059 75.5531C66.9958 75.5883 66.9254 75.6094 66.8551 75.6094C66.7567 75.6094 66.6582 75.5953 66.5668 75.5461L66.4403 75.4617C66.3699 75.3914 66.3137 75.3141 66.2856 75.2156C66.2785 75.1664 66.2715 75.1242 66.2574 75.075C66.2574 75.0047 66.2574 74.9344 66.2856 74.8711C66.3207 74.8711 66.3489 74.8711 66.384 74.8711C66.7356 74.857 67.0661 74.9203 67.3825 75.0258V75.0188Z" fill="#FFA265"/>
<path d="M51.047 102.537C52.1861 103.142 53.9581 103.044 54.8792 101.532L65.1734 94.6692C65.7781 94.3668 66.1297 93.4597 65.8906 92.8269C65.6727 92.2433 64.9062 92.0745 64.4351 91.9198C64.7234 91.3432 64.8781 90.4924 64.4562 90.0283C64.2031 89.7471 63.8023 89.6908 63.4366 89.8104C63.7741 89.2267 63.8655 88.4673 63.5632 87.9329C63.1905 87.279 62.3256 87.1595 61.6647 87.5462C62.1006 86.9133 62.192 85.9641 61.7561 85.4227C61.4256 85.0148 60.8701 84.9375 60.3638 85.1203C60.5818 84.6914 60.6521 84.1781 60.4763 83.7773C60.1951 83.1304 59.3724 82.9757 58.7817 83.3554C59.3091 82.7507 59.4919 81.7451 59.1122 81.0982C58.7255 80.4302 57.8254 80.2826 57.1504 80.7115C57.727 80.1279 57.9379 79.0661 57.5301 78.4122C57.1293 77.7582 56.2222 77.6668 55.5753 78.1309C56.0464 77.5965 56.2011 76.7035 55.8707 76.1339C55.5402 75.5644 54.7878 75.4167 54.2042 75.7472C54.7948 75.1988 55.0339 74.1581 54.6542 73.4971C54.2675 72.815 53.3182 72.7166 52.6783 73.2159C53.2057 72.6182 53.2971 71.5564 52.8049 71.0361C52.3338 70.5298 51.4548 70.6634 50.9486 71.2329C51.3142 70.5649 51.3142 69.6649 50.8923 69.1446C50.4001 68.5258 49.4086 68.5188 48.7828 69.1305C49.2891 68.6102 49.0149 67.7383 48.7055 67.1406C46.6945 63.2521 44.6553 59.3988 42.9537 55.2994C41.2098 51.0805 39.9934 46.5099 38.2144 42.3262C37.7362 41.1941 37.4268 39.9565 37.244 38.6908C37.1878 38.2971 37.1386 37.9947 37.1807 37.5869C37.2229 37.1931 37.2581 36.7993 37.2862 36.4126C37.3425 35.611 37.3706 34.8024 37.3706 34.0078C37.3706 32.4468 37.237 30.9069 36.9979 29.4092C36.9135 28.8748 36.8292 27.9466 36.4565 27.588C36.1612 27.2997 35.5705 27.3208 35.1838 27.3911C34.8463 27.4544 34.3681 27.7638 34.2908 28.1927C34.2697 28.3193 34.2837 28.4458 34.2908 28.5724C34.3119 29.1771 34.0798 30.1194 33.3767 29.9576C32.997 29.8733 32.7719 29.3951 32.8774 28.9451C33.004 28.4318 33.4962 27.9818 33.4259 27.4825C33.3556 26.9833 32.568 26.5684 32.1954 26.4137C31.9422 26.3082 31.4922 26.2168 31.225 26.4137C30.9297 26.6317 30.6554 27.2856 30.4586 27.6161C29.9593 28.4318 29.4671 29.2615 28.989 30.0983C28.546 30.8788 28.2577 31.7999 27.9905 32.6507C26.767 36.6025 28.8976 40.498 30.2336 43.6973C32.0407 48.0147 33.9743 52.2477 35.9713 56.4385C37.3073 59.2371 38.6152 62.0638 39.7051 65.017C40.2465 66.4937 40.7387 67.9984 41.1606 69.5383C41.4348 70.5228 42.7005 72.0205 42.574 72.9557C42.4755 73.6588 42.1099 74.3339 42.0817 75.037C42.0536 75.7402 42.6654 76.4504 43.2068 76.0425C42.581 76.4012 42.1802 77.266 42.3068 77.9973C42.4333 78.7216 43.0802 79.2208 43.7482 79.1153C43.0873 79.6708 42.813 80.7537 43.1435 81.5061C43.474 82.2585 44.36 82.5678 45.0983 82.1952C44.5428 82.4905 44.1912 83.278 44.3459 83.9038C44.4936 84.5296 45.1264 84.8953 45.703 84.6984C45.1545 85.2117 44.9506 86.1399 45.246 86.7868C45.5413 87.4337 46.2937 87.7009 46.9406 87.3985C46.2374 88.0665 45.9702 89.2689 46.3569 90.0987C46.7366 90.9284 47.7211 91.2729 48.5508 90.8721C47.8476 91.1745 47.3765 92.1448 47.5523 92.9113C47.7281 93.6777 48.5156 94.1207 49.2188 93.8394C48.4945 94.0996 47.9742 95.084 48.15 95.8716C48.2906 96.5255 48.8883 96.9333 49.493 96.87C48.9516 97.1232 48.5367 97.8263 48.6141 98.4522C48.7055 99.1483 49.2821 99.4858 49.8657 99.3874C48.1781 99.978 50.3368 102.151 51.047 102.53V102.537Z" fill="#F1E8DF"/>
<path d="M32.5754 28.9857C32.6457 28.9576 32.716 28.9154 32.7863 28.8662C33.2926 28.5217 33.3066 28.0365 33.5176 27.5021C33.7637 26.8763 34.0168 26.2505 34.3333 25.6598C34.5442 25.2731 35.163 24.148 34.6989 23.8738C34.5301 23.7753 34.3051 23.8738 34.1153 23.9722C33.3348 24.3871 32.5613 24.8793 31.8933 25.5262C31.5488 25.8567 31.2323 26.2223 30.9581 26.6231C30.8456 26.7849 30.7823 26.9466 30.6909 27.1224C30.5854 27.3193 30.4307 27.4599 30.3393 27.6638C30.2409 27.8888 30.2057 28.163 30.3182 28.3529C30.48 28.6271 30.8386 28.606 31.1269 28.6974C31.387 28.7748 31.605 28.9646 31.8652 29.042C32.0902 29.1053 32.3433 29.0912 32.5754 28.9857V28.9857Z" fill="#202328"/>
<path d="M36.316 29.3181C36.4145 29.2971 36.5129 29.2619 36.6043 29.1986C36.984 28.9384 36.8997 28.2493 36.8856 27.8626C36.8715 27.3001 36.8223 26.7376 36.7309 26.1891C36.6184 25.493 36.534 24.6211 35.9996 24.2062C35.409 23.7491 35.0082 24.5789 34.8113 25.1766C34.6706 25.6055 34.5792 26.0485 34.5019 26.4844C34.4386 26.8501 34.4035 27.2157 34.3613 27.5813C34.3191 27.9189 34.1784 28.2493 34.1433 28.5728C34.1081 28.84 34.1644 29.1353 34.3542 29.2689C34.4949 29.3744 34.6917 29.3744 34.8746 29.3744L35.9504 29.3533C36.0699 29.3533 36.1965 29.3533 36.316 29.3252V29.3181Z" fill="#202328"/>
<path d="M46.1956 74.0587C45.7527 74.1641 45.4011 74.4524 45.155 74.9095C44.9792 75.24 44.7823 75.8447 45.2042 75.9431C45.4503 75.9994 45.3167 76.4142 45.0706 76.3861C43.7065 76.2173 45.0565 73.1867 46.2449 73.7774C46.3433 73.8266 46.3081 74.0376 46.1956 74.0587V74.0587Z" fill="#F9F6F2"/>
<path d="M50.6042 72.7522C50.7941 73.6663 50.3511 74.5312 49.4792 74.6015C49.3245 74.6155 49.3526 74.3624 49.5003 74.3343C50.2948 74.2077 50.4777 72.9491 49.9784 72.4779C49.6409 72.1615 49.1276 72.3092 48.7338 72.1053C48.6284 72.049 48.6776 71.8592 48.783 71.824C49.5284 71.5498 50.4284 71.9014 50.6042 72.7451V72.7522Z" fill="#F9F6F2"/>
<path d="M47.9396 79.2555C47.6021 79.3821 47.2927 79.4524 47.0817 79.8391C46.927 80.1133 46.8989 80.4016 46.9059 80.697C46.913 80.9079 46.6458 80.9571 46.5755 80.8095C46.1465 79.9657 47.1872 78.6016 47.9958 78.9742C48.1013 79.0235 48.0521 79.2133 47.9466 79.2555H47.9396Z" fill="#F9F6F2"/>
<path d="M52.5801 78.2934C52.1934 78.3216 51.8066 78.2161 51.4691 78.5677C51.1808 78.863 51.0824 79.3271 51.005 79.7209C50.998 79.7771 50.9136 79.7912 50.8995 79.7419C50.7448 79.2357 50.8292 78.638 51.23 78.2161C51.6238 77.7942 52.2707 77.6747 52.6645 77.9981C52.7699 78.0825 52.7207 78.2864 52.5731 78.3005L52.5801 78.2934Z" fill="#F9F6F2"/>
<path d="M50.7025 84.508C50.2455 84.5291 49.7111 84.4448 49.3243 84.8807C48.9024 85.3518 49.0712 85.9776 49.2259 86.4699C49.247 86.5331 49.1837 86.5894 49.1345 86.5472C48.6915 86.1042 48.5227 85.2886 48.9727 84.6557C49.4157 84.0369 50.2525 83.8893 50.7728 84.2549C50.8642 84.3182 50.815 84.501 50.6955 84.508H50.7025Z" fill="#F9F6F2"/>
<path d="M100.107 102.77C98.9887 103.417 97.2168 103.375 96.2464 101.898L85.7202 95.3941C85.1084 95.1129 84.7217 94.2198 84.9397 93.58C85.1365 92.9893 85.896 92.7924 86.36 92.6237C86.0507 92.0541 85.8678 91.2103 86.2686 90.7392C86.5147 90.4509 86.9085 90.3806 87.2812 90.4861C86.9226 89.9165 86.803 89.1571 87.0843 88.6157C87.4359 87.9477 88.2937 87.8 88.9688 88.1657C88.5117 87.5469 88.3922 86.5976 88.807 86.0492C89.1234 85.6343 89.6789 85.5288 90.1852 85.6976C89.9532 85.2757 89.8688 84.7694 90.0305 84.3616C90.2907 83.7076 91.1064 83.5248 91.7111 83.8834C91.1626 83.2928 90.9517 82.2943 91.3032 81.6404C91.6689 80.9583 92.5619 80.7825 93.251 81.1833C92.6533 80.6208 92.4072 79.5661 92.7869 78.9051C93.1666 78.2441 94.0737 78.1105 94.7346 78.5535C94.2495 78.0332 94.0666 77.1472 94.376 76.5706C94.6854 75.987 95.4308 75.8182 96.0285 76.1206C95.4237 75.5932 95.1425 74.5596 95.5011 73.8845C95.8667 73.1884 96.809 73.0548 97.4699 73.533C96.9215 72.9564 96.7879 71.8946 97.266 71.3532C97.7231 70.8328 98.602 70.9383 99.1294 71.4868C98.7356 70.8328 98.7075 69.9328 99.1153 69.3984C99.5864 68.7656 100.571 68.7234 101.225 69.314C100.704 68.8078 100.944 67.9288 101.225 67.3241C103.102 63.3723 105.008 59.4487 106.562 55.2931C108.158 51.0179 109.22 46.4052 110.851 42.1651C111.294 41.019 111.554 39.7744 111.695 38.4947C111.737 38.1009 111.779 37.7985 111.723 37.3907C111.667 36.9969 111.617 36.6102 111.575 36.2164C111.491 35.4148 111.435 34.6132 111.406 33.8116C111.357 32.2577 111.428 30.7107 111.624 29.1989C111.695 28.6645 111.744 27.7293 112.103 27.3566C112.391 27.0613 112.975 27.0613 113.368 27.1176C113.706 27.1668 114.191 27.4621 114.289 27.884C114.318 28.0106 114.311 28.1372 114.311 28.2637C114.311 28.8755 114.571 29.8036 115.274 29.6138C115.647 29.5153 115.857 29.0302 115.738 28.5872C115.597 28.0809 115.091 27.652 115.14 27.1457C115.197 26.6465 115.97 26.2035 116.336 26.0347C116.582 25.9222 117.032 25.8097 117.306 25.9996C117.608 26.2105 117.904 26.8504 118.115 27.1738C118.642 27.9754 119.162 28.7841 119.669 29.5997C120.133 30.3662 120.456 31.2732 120.751 32.117C122.116 36.0195 120.119 39.9853 118.888 43.2339C117.229 47.6146 115.443 51.9109 113.586 56.165C112.349 59.0057 111.139 61.8746 110.155 64.8701C109.663 66.3608 109.227 67.8866 108.854 69.4406C108.615 70.432 107.398 71.979 107.56 72.9072C107.68 73.6033 108.074 74.2713 108.123 74.9674C108.179 75.6706 107.588 76.4018 107.033 76.0081C107.673 76.3386 108.102 77.1964 107.996 77.9277C107.891 78.659 107.265 79.1793 106.597 79.0949C107.272 79.6293 107.588 80.7052 107.286 81.4646C106.984 82.224 106.105 82.5685 105.359 82.224C105.929 82.4982 106.302 83.2787 106.175 83.9045C106.048 84.5303 105.43 84.9171 104.846 84.7413C105.409 85.2335 105.648 86.1617 105.373 86.8086C105.099 87.4555 104.354 87.7578 103.707 87.4766C104.438 88.1164 104.741 89.3188 104.382 90.1556C104.03 90.9924 103.06 91.3721 102.216 91.0064C102.926 91.2877 103.433 92.2369 103.285 93.0104C103.137 93.7839 102.364 94.255 101.647 93.9948C102.378 94.2339 102.933 95.1972 102.786 95.9918C102.666 96.6528 102.083 97.0817 101.478 97.0395C102.026 97.2786 102.469 97.9606 102.413 98.5935C102.35 99.2966 101.78 99.6482 101.197 99.5709C102.898 100.105 100.817 102.348 100.121 102.756L100.107 102.77Z" fill="#F1E8DF"/>
<path d="M116.04 28.6287C115.963 28.6006 115.893 28.5654 115.822 28.5162C115.302 28.1857 115.274 27.7005 115.049 27.1802C114.782 26.5614 114.507 25.9497 114.17 25.3661C113.952 24.9863 113.284 23.8894 113.741 23.5941C113.91 23.4886 114.135 23.58 114.324 23.6714C115.119 24.0582 115.907 24.5223 116.603 25.1481C116.954 25.4645 117.285 25.8231 117.573 26.2169C117.693 26.3786 117.756 26.5333 117.854 26.7021C117.967 26.8919 118.129 27.0325 118.227 27.2365C118.339 27.4544 118.375 27.7287 118.269 27.9255C118.114 28.2068 117.756 28.1998 117.475 28.2982C117.221 28.3896 117.004 28.5795 116.75 28.6639C116.525 28.7412 116.272 28.7271 116.04 28.6357V28.6287Z" fill="#202328"/>
<path d="M112.313 29.0922C112.215 29.0781 112.116 29.043 112.025 28.9867C111.631 28.7406 111.702 28.0515 111.695 27.6578C111.695 27.0952 111.723 26.5327 111.786 25.9843C111.87 25.2811 111.927 24.4092 112.447 23.9732C113.024 23.4951 113.452 24.3107 113.663 24.9014C113.818 25.3233 113.924 25.7663 114.015 26.2022C114.092 26.5608 114.135 26.9265 114.198 27.2921C114.254 27.6296 114.402 27.9531 114.451 28.2766C114.493 28.5438 114.451 28.8391 114.268 28.9797C114.127 29.0922 113.938 29.0992 113.755 29.0992L112.679 29.1133C112.559 29.1133 112.433 29.1133 112.313 29.0922Z" fill="#202328"/>
<path d="M103.974 74.1438C104.424 74.2281 104.783 74.5094 105.05 74.9594C105.24 75.2829 105.458 75.8806 105.036 76.0001C104.79 76.0704 104.945 76.4712 105.184 76.4361C106.541 76.2181 105.092 73.2437 103.918 73.8695C103.819 73.9188 103.862 74.1297 103.981 74.1508L103.974 74.1438Z" fill="#F9F6F2"/>
<path d="M99.5226 72.9908C99.368 73.912 99.8391 74.7558 100.711 74.805C100.866 74.812 100.831 74.5589 100.683 74.5378C99.8883 74.4393 99.6563 73.1877 100.141 72.6955C100.472 72.365 100.992 72.4986 101.372 72.2806C101.477 72.2244 101.421 72.0345 101.309 71.9994C100.556 71.7462 99.6703 72.133 99.5226 72.9838V72.9908Z" fill="#F9F6F2"/>
<path d="M102.413 79.3957C102.758 79.5082 103.067 79.5715 103.292 79.9442C103.454 80.2114 103.496 80.4997 103.496 80.795C103.496 81.006 103.763 81.0482 103.834 80.9005C104.227 80.0426 103.145 78.7207 102.357 79.1145C102.252 79.1707 102.315 79.3606 102.42 79.3957H102.413Z" fill="#F9F6F2"/>
<path d="M97.7369 78.5962C98.1237 78.6103 98.5034 78.4978 98.855 78.8283C99.1503 79.1095 99.2698 79.5736 99.3542 79.9674C99.3683 80.0236 99.4456 80.0377 99.4597 79.9814C99.5933 79.4681 99.4878 78.8775 99.08 78.4626C98.6721 78.0548 98.0252 77.9563 97.6385 78.2939C97.5401 78.3782 97.5893 78.5822 97.7369 78.5892V78.5962Z" fill="#F9F6F2"/>
<path d="M99.8253 84.7413C100.289 84.7413 100.81 84.6429 101.218 85.0648C101.653 85.5218 101.506 86.1547 101.365 86.6469C101.351 86.7102 101.414 86.7664 101.457 86.7242C101.886 86.2672 102.026 85.4515 101.555 84.8327C101.091 84.228 100.247 84.1085 99.7409 84.4952C99.6495 84.5655 99.7057 84.7413 99.8253 84.7413V84.7413Z" fill="#F9F6F2"/>
<path d="M63.2326 26.9545C62.3607 28.621 61.7067 30.407 61.2426 32.2141C60.4059 35.5049 59.5058 39.5832 60.2371 42.9373C60.7504 45.2717 62.9443 46.9945 65.2366 47.2898C72.3736 48.2039 88.1876 51.3822 89.0525 40.5043C89.6642 32.8399 85.2976 21.1535 76.6699 19.6135C72.8307 18.9245 68.6047 20.0143 65.9538 22.9817C64.878 24.1841 63.9779 25.5201 63.2326 26.9475V26.9545Z" fill="#FCE1CE"/>
<path d="M69.2378 41.0269C68.4151 40.2534 67.8174 39.2127 67.712 37.9681C67.4729 35.1977 69.3363 32.8913 70.0043 30.353C70.3207 29.1646 70.0394 29.3826 70.5808 27.5403C71.1152 25.7262 72.6903 24.4675 74.413 24.6433H74.7857C76.5084 24.4675 78.0835 25.7262 78.6179 27.5403C79.1594 29.3896 78.8851 29.1716 79.1945 30.353C79.7781 32.5468 81.2055 34.4383 81.4868 36.7306C82.1478 42.166 75.5029 43.291 71.9731 42.4754C70.9887 42.2504 70.0043 41.7511 69.2308 41.0198L69.2378 41.0269Z" fill="#FCE8DE"/>
<path d="M81.4587 29.855C82.1408 28.8144 83.4346 28.2237 84.6792 28.3222C86.0363 28.4276 87.316 29.3347 87.8223 30.5934C88.3286 31.852 88.0262 33.42 87.0488 34.3693C85.8394 35.5436 83.7651 35.6069 82.408 34.6084C80.9806 33.5466 80.4813 31.3457 81.4587 29.855V29.855Z" fill="white"/>
<path d="M86.3882 33.8627C85.7694 34.4674 84.8623 34.7768 84.0115 34.6432C82.6544 34.4323 81.6067 33.026 81.7544 31.6618C81.902 30.2977 83.1888 29.1586 84.567 29.1445C85.1366 29.1445 85.7061 29.3063 86.1632 29.6297C86.8241 30.0938 87.239 30.8813 87.2671 31.69C87.3023 32.4986 86.9648 33.3072 86.3811 33.8697L86.3882 33.8627Z" fill="black"/>
<path d="M87.035 28.5533C86.592 28.5322 86.1912 28.3494 85.8326 28.0962C85.2278 27.6673 85.038 26.8376 85.6005 26.2751C86.163 25.7125 86.9928 25.9094 87.4217 26.5071C87.2951 26.3313 87.5131 26.5985 87.5272 26.6126C87.6045 26.6899 87.6819 26.7532 87.7522 26.8376C87.9772 27.1329 88.1178 27.4353 88.0123 27.815C87.8998 28.2298 87.485 28.5744 87.042 28.5533H87.035Z" fill="black"/>
<path d="M62.6921 28.4966C63.1351 28.5318 63.557 28.3982 63.9437 28.1942C64.5906 27.8427 64.893 27.0481 64.4008 26.4153C63.9086 25.7824 63.0648 25.8809 62.5655 26.4223C62.7132 26.2606 62.4671 26.4996 62.453 26.5137C62.3687 26.584 62.2773 26.6332 62.1999 26.7106C61.9397 26.9708 61.7639 27.259 61.8202 27.6458C61.8835 28.0677 62.2491 28.4614 62.6921 28.4966Z" fill="black"/>
<path d="M68.0847 29.855C67.4026 28.8144 66.1088 28.2237 64.8642 28.3222C63.5071 28.4276 62.2274 29.3347 61.7211 30.5934C61.2148 31.852 61.5172 33.42 62.4946 34.3693C63.704 35.5436 65.7783 35.6069 67.1354 34.6084C68.5628 33.5466 69.0621 31.3457 68.0847 29.855V29.855Z" fill="white"/>
<path d="M63.156 33.8627C63.7748 34.4674 64.6818 34.7768 65.5327 34.6432C66.8897 34.4323 67.9374 33.026 67.7898 31.6618C67.6421 30.2977 66.3553 29.1586 64.9772 29.1445C64.4076 29.1445 63.838 29.3063 63.381 29.6297C62.72 30.0938 62.3052 30.8813 62.277 31.69C62.2419 32.4986 62.5794 33.3072 63.163 33.8697L63.156 33.8627Z" fill="black"/>
<path d="M77.1414 43.4192C77.0289 43.4051 76.9235 43.4895 76.9094 43.602C76.8813 43.8481 76.7406 44.0801 76.5156 44.2418C76.2906 44.4036 76.0234 44.4669 75.7844 44.4176C75.4257 44.3403 75.0953 44.045 74.9124 43.6231C74.7366 43.2223 74.6874 42.7723 74.6523 42.3011C74.5679 41.155 74.7507 37.7025 74.7788 36.486C74.7929 35.9235 74.807 35.3329 74.807 34.7422C74.807 34.6297 74.7156 34.5312 74.6031 34.5312C74.4905 34.5312 74.3921 34.6156 74.3921 34.7281C74.378 35.0516 74.371 35.368 74.3569 35.6774C74.3077 37.0696 74.1038 40.5854 73.8788 41.83C73.6819 42.9199 73.2881 43.5879 72.7045 43.8059C72.4092 43.9184 72.0647 43.8832 71.7553 43.7145C71.4459 43.5457 71.2279 43.2785 71.1646 42.9691C71.1365 42.8566 71.031 42.7863 70.9185 42.8074C70.806 42.8355 70.7357 42.941 70.7568 43.0535C70.8482 43.4754 71.1435 43.8481 71.5584 44.0731C71.9732 44.2981 72.4444 44.3403 72.8522 44.1926C73.5272 43.9395 73.9913 43.2645 74.2374 42.1886C74.2374 42.2308 74.2374 42.28 74.2444 42.3222C74.2796 42.8285 74.3358 43.3207 74.5398 43.7848C74.7788 44.3333 75.2218 44.72 75.707 44.8184C75.7633 44.8325 75.8125 44.8395 75.8687 44.8395C76.1781 44.8606 76.4945 44.7692 76.7688 44.5723C77.0852 44.3403 77.2961 44.0028 77.3313 43.6371C77.3454 43.5246 77.261 43.4192 77.1485 43.4051L77.1414 43.4192Z" fill="#202328"/>
<path d="M72.8948 32.5471C72.3815 32.5681 71.8541 32.7791 71.5729 33.208C71.3057 33.6088 71.2986 34.1362 71.4393 34.6003C71.5799 35.0644 71.8471 35.4722 72.1143 35.873C72.6628 36.7027 73.3729 37.6309 74.3644 37.6309C75.2223 37.6309 75.9043 36.9348 76.4739 36.2949C76.8465 35.873 77.2263 35.437 77.4442 34.9097C77.6552 34.3893 77.6763 33.7495 77.3458 33.2924C77.0575 32.8916 76.5442 32.6947 76.052 32.6666C75.5387 32.6385 75.0535 32.8424 74.5472 32.8213C73.9847 32.8002 73.4784 32.526 72.9018 32.5471H72.8948Z" fill="black"/>
<path d="M83.969 39.3797C83.9972 39.3235 84.0323 39.2602 84.0675 39.2039C84.7847 38.0437 86.4301 37.2702 87.7801 37.7062C89.2216 38.1703 89.2497 39.8157 88.2724 40.793C86.859 42.2064 82.4572 42.34 83.969 39.3797Z" fill="#F6A1A0"/>
<path d="M64.7933 39.6045C64.7511 39.5483 64.7159 39.499 64.6737 39.4498C63.7878 38.4162 62.0439 37.9099 60.7783 38.5498C59.4282 39.2318 59.6532 40.8632 60.7712 41.6718C62.3885 42.8461 66.7551 42.2976 64.8003 39.6045H64.7933Z" fill="#F6A1A0"/>
<path d="M84.7495 22.0683C83.6596 22.7223 82.2885 21.9136 81.3814 21.0277C82.1689 21.4144 82.8088 22.1879 82.851 23.0668C82.8861 23.9458 82.197 24.8458 81.3181 24.881C80.4391 24.9161 79.6586 23.8754 80.0594 23.0949C80.5587 24.3747 79.5532 25.9919 78.189 26.1045C76.8249 26.217 75.5592 24.7825 75.8475 23.4395C76.2413 24.1919 76.2765 25.1552 75.7983 25.8583C75.3202 26.5615 74.3006 26.8779 73.5693 26.456C72.838 26.0341 72.6411 24.8528 73.288 24.3044C73.6677 24.9442 73.2459 25.8724 72.5357 26.0834C71.8255 26.2943 71.0098 25.8373 70.7426 25.1411C70.4754 24.452 70.7145 23.6223 71.2489 23.102C71.277 24.2903 69.8004 25.2185 68.7386 24.677C67.6839 24.1356 67.5714 22.3918 68.5558 21.7238C68.3167 22.8066 66.7698 23.2145 65.8697 22.5605C64.9697 21.9136 64.7517 20.5917 65.1244 19.551C65.4971 18.5104 66.3409 17.6947 67.2409 17.0478C69.6105 15.3461 72.5568 14.4953 75.4678 14.5867C78.3789 14.6782 81.2478 15.7118 83.6034 17.4205C84.3698 17.976 85.1151 18.644 85.4456 19.5299C85.7761 20.4159 85.5652 21.5691 84.7565 22.0543L84.7495 22.0683Z" fill="#F1E8DF"/>
<path d="M77.261 22.9617C77.3454 22.9546 77.4298 22.9406 77.5142 22.9195C78.0697 22.7788 78.5478 22.3429 78.7939 21.7593C78.822 21.703 78.8431 21.6397 78.8572 21.5835C79.4479 21.921 80.0948 21.9702 80.6362 21.7382C81.6558 21.2952 82.1761 19.9592 81.7472 18.8763C81.3534 17.8849 80.2846 17.2169 79.1525 17.245C78.9275 17.2591 78.7517 17.4348 78.7588 17.6599C78.7588 17.8849 78.9486 18.0607 79.1736 18.0536C79.9682 18.0325 80.7346 18.5036 81.0018 19.1716C81.269 19.8537 80.9456 20.7256 80.3198 20.9928C80.0174 21.1264 79.6236 21.0913 79.2932 20.9014C79.1385 20.81 79.0119 20.6975 78.9205 20.5639C78.8853 20.374 78.815 20.1912 78.7236 20.0295C78.6252 19.8607 78.4283 19.7904 78.2455 19.8467C78.0626 19.91 77.9501 20.0857 77.9712 20.2756C77.9923 20.4725 78.0556 20.6623 78.147 20.8381C78.1611 21.028 78.133 21.2389 78.0486 21.4358C77.9009 21.7874 77.6267 22.0476 77.3103 22.1249C76.9938 22.2093 76.6282 22.1108 76.3329 21.8788C76.1711 21.7522 76.0446 21.5905 75.9602 21.4217C75.9602 21.2038 75.918 20.9928 75.8266 20.803C75.7492 20.6342 75.5594 20.5358 75.3766 20.578C75.1938 20.6201 75.0602 20.7748 75.0602 20.9647C75.0602 21.1545 75.0883 21.3514 75.1445 21.5413C75.1305 21.6257 75.1023 21.696 75.0813 21.7452C74.9758 21.9913 74.7648 22.1952 74.5328 22.2655C74.0687 22.4202 73.464 22.1812 73.1405 21.7171C72.9015 21.3796 72.789 20.9295 72.8101 20.4444C72.8593 20.2756 72.8804 20.0998 72.8733 19.924C72.8733 19.7201 72.7116 19.5514 72.5077 19.5303C72.3038 19.5092 72.1139 19.6498 72.0717 19.8467C72.0366 20.0014 72.0155 20.1561 72.0014 20.3037C71.9311 20.5217 71.7975 20.7256 71.6147 20.8944C71.3264 21.1616 70.9608 21.2952 70.6162 21.26C70.2717 21.2249 69.9412 21.028 69.7091 20.7045C69.4771 20.3881 69.3857 20.0084 69.456 19.6779C69.5052 19.4599 69.3646 19.249 69.1466 19.1998C68.9286 19.1506 68.7177 19.2912 68.6685 19.5092C68.5489 20.0717 68.6896 20.6834 69.0552 21.1827C69.4208 21.6819 69.9623 22.0054 70.5318 22.0616C71.0944 22.1108 71.6709 21.914 72.128 21.5061C72.2053 21.7522 72.3178 21.9772 72.4655 22.1812C72.9929 22.9265 73.9562 23.2851 74.7648 23.032C75.1164 22.9195 75.4328 22.6734 75.6508 22.3569C75.7071 22.4062 75.7633 22.4624 75.8196 22.5046C76.2415 22.8351 76.7548 22.9968 77.247 22.9476L77.261 22.9617Z" fill="#F9F6F2"/>
</g>
</svg>
